<?xml version="1.0" standalone="no"?>
<!DOCTYPE svg PUBLIC "-//W3C//DTD SVG 20010904//EN"
 "http://www.w3.org/TR/2001/REC-SVG-20010904/DTD/svg10.dtd">
<svg version="1.0" xmlns="http://www.w3.org/2000/svg"
 width="421.000000pt" height="421.000000pt" viewBox="0 0 421.000000 421.000000"
 preserveAspectRatio="xMidYMid meet">
<metadata>
Created by potrace 1.11, written by Peter Selinger 2001-2013
</metadata>
<g transform="translate(0.000000,421.000000) scale(0.100000,-0.100000)"
fill="#000000" stroke="none">
<path d="M1900 3533 c-94 -16 -237 -72 -329 -131 -230 -146 -385 -350 -447
-588 -22 -84 -26 -122 -27 -249 -1 -182 19 -278 62 -294 14 -6 36 -19 49 -30
20 -18 22 -28 22 -125 0 -102 9 -131 32 -108 5 5 13 66 18 135 8 125 13 147
30 147 6 0 7 -41 4 -103 -7 -114 7 -188 51 -257 97 -154 352 -197 505 -85 96
71 171 222 168 342 -1 56 13 69 87 78 36 5 70 2 112 -10 70 -20 86 -40 69 -93
-16 -55 7 -184 49 -267 63 -126 171 -188 330 -189 101 -1 134 12 216 79 80 67
115 148 123 289 2 43 10 84 16 90 10 8 11 0 6 -39 -3 -27 -9 -98 -12 -157 -6
-94 -5 -108 9 -108 16 0 28 42 42 145 8 56 26 91 52 99 10 3 26 23 35 44 10
20 31 57 48 82 16 25 41 86 56 135 24 79 27 107 28 235 1 161 -12 221 -69 341
-50 103 -103 177 -185 260 -90 91 -171 147 -294 204 -117 54 -203 78 -291 79
-59 0 -78 -4 -117 -26 l-45 -27 -19 20 c-58 64 -248 105 -384 82z m333 -563
c43 1 100 -44 265 -212 l151 -153 -62 -7 c-113 -12 -161 -47 -143 -106 11 -33
45 -41 106 -25 120 32 265 -17 351 -119 22 -27 39 -48 37 -48 -2 0 -27 9 -55
20 -108 41 -330 49 -418 16 -58 -22 -118 -63 -110 -76 3 -5 0 -12 -7 -16 -7
-4 -10 -3 -5 1 4 5 -14 17 -40 28 -53 21 -219 32 -258 17 -18 -7 -29 -2 -55
25 -76 79 -198 118 -366 119 -85 0 -110 4 -107 13 15 38 166 89 231 78 20 -3
62 -14 92 -24 48 -16 59 -17 82 -5 53 27 49 96 -7 120 -46 19 -164 17 -246 -4
l-67 -18 35 76 c81 179 155 247 313 292 51 14 85 17 160 12 52 -3 108 -5 123
-4z m-495 -557 c-10 -2 -26 -2 -35 0 -10 3 -2 5 17 5 19 0 27 -2 18 -5z m55
-10 c-7 -2 -19 -2 -25 0 -7 3 -2 5 12 5 14 0 19 -2 13 -5z m6 -32 c84 -26 145
-64 171 -107 19 -30 22 -46 18 -107 -10 -148 -122 -302 -235 -323 -23 -4 -31
-9 -22 -15 12 -7 -18 -5 -111 6 -25 3 -31 2 -20 -5 12 -8 10 -10 -8 -10 -13 0
-21 4 -18 9 3 5 -1 11 -9 15 -8 3 -15 0 -16 -7 0 -9 -2 -9 -5 0 -3 7 -12 9
-21 6 -11 -4 -14 -2 -9 5 7 11 2 14 -34 16 -8 1 -15 8 -15 16 0 8 -8 15 -17
15 -10 0 -23 6 -30 14 -10 10 -10 12 0 7 6 -4 12 -3 12 2 0 15 -26 33 -35 24
-5 -4 -5 -2 -2 4 4 7 -3 34 -15 60 -43 97 -19 282 45 342 47 44 76 52 199 52
86 0 132 -5 177 -19z m844 -28 c-13 -2 -35 -2 -50 0 -16 2 -5 4 22 4 28 0 40
-2 28 -4z m-100 -10 c-7 -2 -19 -2 -25 0 -7 3 -2 5 12 5 14 0 19 -2 13 -5z
m265 -37 c80 -22 114 -46 141 -100 41 -82 34 -231 -16 -315 -15 -25 -26 -48
-25 -51 3 -12 -41 -48 -53 -44 -7 3 -16 0 -21 -7 -5 -8 -3 -10 7 -5 8 4 5 0
-5 -8 -11 -9 -25 -16 -30 -16 -6 0 -4 5 4 10 17 11 10 13 -14 4 -9 -3 -14 -9
-11 -14 2 -4 -7 -5 -22 -2 -17 3 -24 1 -19 -6 4 -7 -8 -8 -36 -5 -182 20 -263
69 -321 193 -28 58 -31 75 -31 161 -1 109 9 136 63 173 59 41 133 57 241 51
52 -2 119 -11 148 -19z"/>
<path d="M2143 2303 c9 -2 25 -2 35 0 9 3 1 5 -18 5 -19 0 -27 -2 -17 -5z"/>
<path d="M1600 2309 c-56 -25 -96 -62 -122 -112 -27 -54 -19 -84 10 -32 46 85
110 131 198 141 101 12 197 -40 246 -135 16 -30 28 -45 28 -34 0 28 -53 107
-92 136 -76 58 -186 73 -268 36z"/>
<path d="M1663 2255 c-58 -25 -100 -133 -70 -178 19 -29 166 -59 199 -40 31
17 36 16 41 -4 3 -13 10 -5 25 27 26 55 27 74 3 126 -34 74 -119 104 -198 69z
m45 -67 c2 -19 -2 -28 -18 -33 -37 -12 -64 27 -38 53 21 21 53 10 56 -20z"/>
<path d="M2540 2251 c-49 -15 -87 -40 -128 -85 -23 -25 -42 -50 -42 -55 0 -5
-3 -18 -6 -28 -3 -10 2 -4 12 12 25 46 75 95 118 117 49 25 141 34 189 19 53
-18 127 -88 153 -146 18 -39 23 -45 23 -25 1 65 -61 143 -144 181 -41 19 -129
24 -175 10z"/>
<path d="M2543 2195 c-16 -7 -43 -29 -62 -50 -30 -35 -33 -43 -29 -91 3 -29
11 -63 20 -76 15 -23 17 -24 99 -13 46 5 90 14 97 18 7 5 19 4 27 -3 21 -17
45 26 45 80 0 51 -26 102 -62 121 -37 20 -104 27 -135 14z m22 -75 c0 -18 -6
-26 -23 -28 -24 -4 -38 18 -28 44 3 9 15 14 28 12 17 -2 23 -10 23 -28z"/>
<path d="M2874 1808 l-19 -23 23 19 c12 11 22 21 22 23 0 8 -8 2 -26 -19z"/>
<path d="M2128 1583 c6 -2 18 -2 25 0 6 3 1 5 -13 5 -14 0 -19 -2 -12 -5z"/>
<path d="M1710 1516 c0 -4 13 -36 29 -71 20 -44 48 -83 86 -119 63 -59 154
-114 164 -99 3 6 15 13 26 16 23 7 192 -7 202 -16 3 -4 0 -14 -8 -23 -13 -16
-11 -17 21 -11 98 19 246 121 279 192 7 17 17 38 22 48 14 27 -4 29 -131 13
-63 -7 -99 -14 -80 -15 51 -2 69 -16 40 -31 -28 -15 -327 -8 -400 9 -104 25
-130 34 -130 47 0 16 19 17 73 5 74 -17 26 2 -60 25 -49 13 -98 26 -110 30
-13 3 -23 3 -23 0z"/>
<path d="M1958 1453 c6 -2 18 -2 25 0 6 3 1 5 -13 5 -14 0 -19 -2 -12 -5z"/>
<path d="M2023 1443 c9 -2 23 -2 30 0 6 3 -1 5 -18 5 -16 0 -22 -2 -12 -5z"/>
<path d="M2168 1433 c23 -2 59 -2 80 0 20 2 1 4 -43 4 -44 0 -61 -2 -37 -4z"/>
</g>
</svg>
